<svg width="64" height="60" viewBox="0 0 64 60" fill="none" xmlns="http://www.w3.org/2000/svg">
<path d="M50.4375 13.1209C53.5913 16.4885 47.8658 23.2408 52.8776 25.0271" stroke="black" stroke-width="0.5" stroke-linecap="round" stroke-linejoin="round"/>
<ellipse cx="1.50296" cy="1.50001" rx="1.50296" ry="1.50001" transform="matrix(0.999076 -0.0429775 0.0431473 0.999069 50.8682 23.1116)" fill="#3DBBE9"/>
<path d="M44.3399 22.892C35.9863 15.2439 24.365 17.0784 19.5985 18.9517C19.9816 18.5348 20.5866 14.7386 20.8412 12.8926C22.757 10.8084 33.3183 11.5218 38.3595 12.1391C35.4357 9.46222 25.4048 10.194 20.7549 10.8945L14.0539 6.67858L36.0338 4.73213L53.4615 13.4913C49.4573 13.6635 46.831 14.7774 46.0184 15.3128C44.8689 16.5634 44.4204 20.8867 44.3399 22.892Z" fill="#818081" stroke="#818081" stroke-width="0.5" stroke-linecap="round" stroke-linejoin="round"/>
<path d="M27.5312 19.0872C26.0352 21.0826 23.941 25.9714 27.5312 29.5632C32.0189 34.0529 37.0054 36.0482 42.989 36.0482" stroke="#3DBBE9" stroke-width="0.8" stroke-linecap="round" stroke-linejoin="round"/>
<path d="M30.5229 19.0872C30.1904 22.5792 32.8166 29.0643 45.9807 29.0643" stroke="#3DBBE9" stroke-width="0.8" stroke-linecap="round" stroke-linejoin="round"/>
<path d="M25.0006 55.5001C30.5005 56.0001 34.5005 55.0001 38.1463 52.7011" stroke="#3DBBE9" stroke-width="0.8" stroke-linecap="round" stroke-linejoin="round"/>
<path d="M23.5668 20.0846C22.9306 20.7497 21.048 23.5766 20.2056 28.5652C18.8722 36.4618 25.0371 44.0297 34.0124 46.0252" stroke="#3DBBE9" stroke-width="0.8" stroke-linecap="round" stroke-linejoin="round"/>
<path d="M43.9999 25.1884C24.4251 23.164 14.8888 37.8411 18.904 51.0001" stroke="#3DBBE9" stroke-width="0.8" stroke-linecap="round" stroke-linejoin="round"/>
<path d="M14.9645 50.0381C12.0275 46.4589 8.32642 38.1122 11.8266 30.1122" stroke="#3DBBE9" stroke-width="0.8" stroke-linecap="round" stroke-linejoin="round"/>
<path d="M12.1271 44.0001C10.5929 30.7177 23.1018 21.4458 41 23.2169" stroke="#3DBBE9" stroke-width="0.8" stroke-linecap="round" stroke-linejoin="round"/>
<path d="M16.9566 25.9963C15.1178 29.4478 12.6487 37.6815 17.4823 43.0042" stroke="#3DBBE9" stroke-width="0.8" stroke-linecap="round" stroke-linejoin="round"/>
<path d="M18.5557 22.0801C28.3515 15.3982 48.6515 18.9518 46.9781 39.0413C46.4795 45.0275 43.4876 47.0229 44.4849 47.5218" stroke="#3DBBE9" stroke-width="0.8" stroke-linecap="round" stroke-linejoin="round"/>
<path d="M12.9943 29.9978C12.9943 30.5488 12.5479 30.9955 11.9971 30.9955C11.4463 30.9955 10.9998 30.5488 10.9998 29.9978C10.9998 29.4467 11.4463 29.0001 11.9971 29.0001C12.5479 29.0001 12.9943 29.4467 12.9943 29.9978Z" fill="#3DBBE9"/>
<circle cx="14.5" cy="32.5001" r="1.5" fill="#3DBBE9"/>
<ellipse cx="18.5559" cy="22.0801" rx="0.997279" ry="0.997715" fill="#3DBBE9"/>
<ellipse cx="27.0323" cy="29.5629" rx="2.4932" ry="2.49429" fill="#3DBBE9"/>
<ellipse cx="20.5502" cy="35.0504" rx="1.99456" ry="1.99543" fill="#3DBBE9"/>
<ellipse cx="21.0487" cy="26.5698" rx="1.49592" ry="1.49657" fill="#3DBBE9"/>
<ellipse cx="35.0096" cy="46.524" rx="1.49592" ry="1.49657" fill="#3DBBE9"/>
<circle cx="18" cy="43.0001" r="1" fill="#3DBBE9"/>
<circle cx="15" cy="50.0001" r="1" fill="#3DBBE9"/>
<circle cx="19" cy="51.0001" r="1" fill="#3DBBE9"/>
<ellipse cx="42.9891" cy="35.5492" rx="1.49592" ry="1.49657" fill="#3DBBE9"/>
<ellipse cx="44.9832" cy="28.5652" rx="1.49592" ry="1.49657" fill="#3DBBE9"/>
<path d="M45.1159 47.4765C45.1159 48.303 44.4461 48.9731 43.6199 48.9731C42.7938 48.9731 42.124 48.303 42.124 47.4765C42.124 46.65 42.7938 45.9799 43.6199 45.9799C44.4461 45.9799 45.1159 46.65 45.1159 47.4765Z" fill="#3DBBE9"/>
<ellipse cx="24.9973" cy="54.9978" rx="0.997279" ry="0.997715" fill="#3DBBE9"/>
<ellipse cx="16.9973" cy="25.9978" rx="0.997279" ry="0.997715" fill="#3DBBE9"/>
<path d="M13 44.0001C13 44.5524 12.5523 45.0001 12 45.0001C11.4477 45.0001 11 44.5524 11 44.0001C11 43.4478 11.4477 43.0001 12 43.0001C12.5523 43.0001 13 43.4478 13 44.0001Z" fill="#3DBBE9"/>
</svg>
