<!DOCTYPE svg PUBLIC "-//W3C//DTD SVG 1.1//EN" "http://www.w3.org/Graphics/SVG/1.1/DTD/svg11.dtd">
<!-- Uploaded to: SVG Repo, www.svgrepo.com, Transformed by: SVG Repo Mixer Tools -->
<svg width="100px" height="100px" viewBox="0 0 1024 1024" class="icon" version="1.1" xmlns="http://www.w3.org/2000/svg" fill="#000000">
<g id="SVGRepo_bgCarrier" stroke-width="0"/>
<g id="SVGRepo_tracerCarrier" stroke-linecap="round" stroke-linejoin="round"/>
<g id="SVGRepo_iconCarrier">
<path d="M638.4 311.6H464.8c-30.9 0-56.2-25.3-56.2-56.2V248c0-30.9 25.3-56.2 56.2-56.2h173.6c30.9 0 56.2 25.3 56.2 56.2v7.4c0 30.9-25.3 56.2-56.2 56.2z" fill="#ffe6db"/>
<path d="M864.4 237.6H161.6c-51.6 0-93.6 42-93.6 93.6v40.3c0 16.6 13.4 30 30 30s30-13.4 30-30v-40.3c0-18.5 15.1-33.6 33.6-33.6h702.9c18.5 0 33.6 15.1 33.6 33.6v43.3c0 16.6 13.4 30 30 30s30-13.4 30-30v-43.3c-0.1-51.7-42.1-93.6-93.7-93.6zM738.1 466.5c0 16.6 13.4 30 30 30H898v303.2c0 18.5-15.1 33.6-33.6 33.6H161.6c-18.5 0-33.6-15.1-33.6-33.6V496.5h128c16.6 0 30-13.4 30-30s-13.4-30-30-30H68v363.2c0 51.6 42 93.6 93.6 93.6h702.9c51.6 0 93.6-42 93.6-93.6V436.5h-190c-16.5 0-30 13.4-30 30z" fill="#744343"/>
<path d="M604.1 188c4.6 0 8.7 4 8.7 8.7v6.1c0 4.6-4 8.7-8.7 8.7H420.2c-4.6 0-8.7-4-8.7-8.7v-6.1c0-4.6 4-8.7 8.7-8.7h183.9m0-60H420.2c-37.8 0-68.7 30.9-68.7 68.7v6.1c0 37.8 30.9 68.7 68.7 68.7H604c37.8 0 68.7-30.9 68.7-68.7v-6.1c0-37.8-30.9-68.7-68.6-68.7z" fill="#744343"/>
<path d="M512.1 645.2c-33.5 0-74.3-21-95.6-33.6-13.8-8.1-26.9-17-36.9-25.1-12.9-10.4-24.7-22.2-24.7-38.5V441.2h311.9V548c0 16-11.5 27.8-24 38.2-12.7 10.6-31.7 8.9-42.2-3.9-10.6-12.7-8.9-31.7 3.9-42.2 0.9-0.7 1.7-1.4 2.4-2v-36.9H414.8v36.6c7 6 21.2 16.2 39.8 26.5 28 15.4 48.1 20.9 57.5 20.9 2.9 0 8-0.5 16.2-3 15.9-4.7 32.6 4.3 37.3 20.2 4.7 15.9-4.3 32.6-20.2 37.3-12.1 3.6-23.3 5.5-33.3 5.5z" fill="#9bcd88"/>
</g>
</svg>